<svg id="svg" xmlns="http://www.w3.org/2000/svg" xmlns:xlink="http://www.w3.org/1999/xlink" width="400" height="434.4370860927152" viewBox="0, 0, 400,434.4370860927152"><g id="svgg"><path id="path0" d="M80.819 1.182 C 80.500 1.383,80.098 1.461,79.927 1.355 C 79.319 0.979,78.011 2.037,78.005 2.911 C 77.989 5.117,77.740 6.194,77.268 6.095 C 76.412 5.914,75.200 6.791,75.200 7.590 C 75.200 8.367,74.629 8.913,73.663 9.059 C 72.987 9.161,72.761 9.387,72.659 10.063 C 72.513 11.029,71.967 11.600,71.190 11.600 C 70.386 11.600,69.517 12.812,69.695 13.684 C 69.753 13.968,69.568 14.153,69.284 14.095 C 68.397 13.914,67.262 14.759,67.128 15.699 C 67.046 16.279,66.679 16.646,66.099 16.728 C 65.056 16.876,64.400 17.826,64.400 19.187 C 64.400 19.401,64.170 19.487,63.889 19.379 C 63.108 19.079,61.886 20.163,61.789 21.240 C 61.742 21.768,61.493 22.153,61.235 22.095 C 60.512 21.932,59.200 22.764,59.200 23.386 C 59.200 24.110,58.037 25.270,57.588 24.992 C 57.169 24.734,56.346 26.157,56.495 26.884 C 56.553 27.168,56.368 27.353,56.084 27.295 C 55.212 27.117,54.000 27.986,54.000 28.790 C 54.000 29.567,53.429 30.113,52.463 30.259 C 51.787 30.361,51.561 30.587,51.459 31.263 C 51.313 32.229,50.767 32.800,49.990 32.800 C 49.186 32.800,48.317 34.012,48.495 34.884 C 48.553 35.168,48.368 35.353,48.084 35.295 C 47.197 35.114,46.062 35.959,45.928 36.899 C 45.846 37.479,45.479 37.846,44.899 37.928 C 43.976 38.059,43.107 39.201,43.295 40.035 C 43.353 40.293,42.989 40.540,42.486 40.586 C 41.324 40.691,40.691 41.324,40.586 42.486 C 40.540 42.989,40.293 43.353,40.035 43.295 C 39.312 43.132,38.000 43.964,38.000 44.586 C 38.000 45.310,36.837 46.470,36.388 46.192 C 35.969 45.934,35.146 47.357,35.295 48.084 C 35.353 48.368,35.168 48.553,34.884 48.495 C 34.012 48.317,32.800 49.186,32.800 49.990 C 32.800 50.767,32.229 51.313,31.263 51.459 C 30.587 51.561,30.361 51.787,30.259 52.463 C 30.113 53.429,29.567 54.000,28.790 54.000 C 27.986 54.000,27.117 55.212,27.295 56.084 C 27.353 56.368,27.168 56.553,26.884 56.495 C 25.997 56.314,24.862 57.159,24.728 58.099 C 24.646 58.679,24.279 59.046,23.699 59.128 C 22.776 59.259,21.907 60.401,22.095 61.235 C 22.153 61.493,21.768 61.742,21.240 61.789 C 20.163 61.886,19.079 63.108,19.379 63.889 C 19.487 64.170,19.401 64.422,19.187 64.450 C 18.974 64.478,18.620 64.545,18.400 64.600 C 18.180 64.655,17.811 64.723,17.579 64.750 C 17.348 64.778,16.970 65.340,16.740 66.000 C 16.363 67.082,15.974 67.381,15.112 67.251 C 14.706 67.190,13.968 68.664,14.095 69.284 C 14.153 69.568,13.968 69.753,13.684 69.695 C 12.812 69.517,11.600 70.386,11.600 71.190 C 11.600 71.967,11.029 72.513,10.063 72.659 C 9.387 72.761,9.161 72.987,9.059 73.663 C 8.913 74.629,8.367 75.200,7.590 75.200 C 6.792 75.200,5.914 76.412,6.095 77.265 C 6.153 77.539,5.930 77.789,5.600 77.820 C 5.270 77.852,4.771 77.906,4.490 77.939 C 4.210 77.973,3.810 78.448,3.601 78.996 C 3.374 79.595,2.579 80.271,1.611 80.691 L 0.000 81.389 0.000 257.466 L 0.000 433.542 2.100 433.788 C 4.587 434.080,325.124 433.872,326.000 433.579 C 327.132 433.199,327.600 432.752,327.600 432.049 C 327.600 431.638,328.142 431.106,328.900 430.772 C 329.615 430.457,330.223 429.975,330.250 429.700 C 330.278 429.425,330.322 428.919,330.350 428.576 C 330.378 428.233,330.576 428.062,330.792 428.195 C 331.346 428.537,332.800 427.682,332.800 427.014 C 332.800 426.296,333.962 425.129,334.405 425.403 C 334.773 425.630,335.328 424.925,335.458 424.066 C 335.555 423.428,336.873 422.398,337.276 422.647 C 337.678 422.896,338.487 421.264,338.195 420.792 C 338.062 420.576,338.233 420.377,338.576 420.350 C 338.919 420.323,339.420 420.277,339.688 420.250 C 339.957 420.223,340.398 419.750,340.669 419.200 C 340.939 418.650,341.665 417.917,342.280 417.570 C 342.990 417.171,343.447 416.546,343.527 415.864 C 343.597 415.271,343.818 414.888,344.019 415.012 C 344.449 415.278,346.029 414.506,345.911 414.088 C 345.752 413.522,346.848 411.982,347.238 412.223 C 347.720 412.521,348.872 411.640,348.592 411.187 C 348.327 410.758,349.510 409.600,350.214 409.600 C 350.971 409.600,351.659 408.219,351.329 407.360 C 351.120 406.814,351.214 406.720,351.760 406.929 C 352.579 407.244,353.997 406.585,354.006 405.886 C 354.015 405.146,354.615 404.357,355.240 404.262 C 356.218 404.114,356.800 403.576,356.800 402.819 C 356.800 402.133,357.804 401.387,358.517 401.542 C 358.691 401.580,359.080 401.025,359.382 400.308 C 359.712 399.524,360.217 399.005,360.652 399.003 C 361.049 399.001,361.596 398.550,361.867 398.000 C 362.139 397.450,362.865 396.717,363.480 396.370 C 364.190 395.971,364.647 395.346,364.727 394.664 C 364.797 394.071,365.018 393.688,365.219 393.812 C 365.644 394.074,367.220 393.313,367.133 392.888 C 366.989 392.195,367.747 391.200,368.419 391.200 C 369.176 391.200,369.714 390.618,369.862 389.640 C 369.957 389.015,370.746 388.415,371.486 388.406 C 372.070 388.399,372.924 386.925,372.625 386.440 C 372.508 386.252,372.958 385.988,373.625 385.855 C 374.509 385.678,374.951 385.286,375.258 384.406 C 375.489 383.743,375.841 383.177,376.039 383.150 C 376.818 383.042,377.018 382.976,377.500 382.670 C 377.775 382.496,378.000 382.023,378.000 381.619 C 378.000 380.947,378.995 380.189,379.688 380.333 C 380.128 380.423,380.870 378.836,380.595 378.392 C 380.462 378.176,380.588 377.979,380.876 377.954 C 381.164 377.928,381.655 377.883,381.966 377.854 C 382.278 377.824,382.818 377.296,383.166 376.680 C 383.515 376.065,384.250 375.339,384.800 375.069 C 385.350 374.798,385.822 374.357,385.850 374.088 C 385.878 373.820,385.923 373.319,385.950 372.976 C 385.978 372.633,386.176 372.462,386.392 372.595 C 386.888 372.902,388.489 372.068,388.225 371.641 C 387.961 371.214,389.557 369.526,389.979 369.787 C 390.293 369.981,391.511 368.830,391.300 368.539 C 390.966 368.076,391.349 367.626,392.386 367.265 C 393.146 367.000,393.664 366.483,393.829 365.826 C 393.971 365.262,394.247 364.778,394.443 364.750 C 394.640 364.723,395.020 364.678,395.288 364.650 C 395.702 364.608,396.486 363.455,396.901 362.278 C 396.963 362.101,397.281 361.916,397.607 361.867 C 398.632 361.712,399.200 361.180,399.200 360.376 C 399.200 359.949,399.380 359.600,399.600 359.600 C 400.368 359.600,400.130 1.336,399.362 1.041 C 398.308 0.636,81.464 0.777,80.819 1.182 M312.931 112.395 C 315.412 112.400,315.768 112.507,316.831 113.569 L 318.000 114.738 318.000 216.989 C 318.000 330.617,318.244 321.146,315.298 322.007 C 314.265 322.309,306.362 322.407,289.864 322.322 L 265.929 322.200 265.164 321.256 C 264.416 320.331,264.400 318.121,264.400 217.410 L 264.400 114.508 265.229 113.454 L 266.058 112.400 280.847 112.400 L 295.636 112.400 296.621 113.384 L 297.605 114.369 297.503 207.620 L 297.400 300.871 296.456 301.635 C 295.059 302.766,287.341 302.766,285.944 301.635 L 285.000 300.871 284.906 213.362 C 284.846 156.855,284.673 125.713,284.420 125.460 C 283.786 124.826,279.728 124.650,278.402 125.199 L 277.200 125.697 277.200 217.234 C 277.200 305.791,277.224 308.785,277.938 309.167 C 278.890 309.676,303.942 309.818,304.444 309.316 C 304.664 309.096,304.849 269.980,304.906 211.452 L 305.000 113.954 306.000 113.195 C 307.135 112.333,308.234 112.025,309.400 112.241 C 309.840 112.322,311.429 112.392,312.931 112.395 M95.217 114.009 C 96.854 114.885,96.823 112.977,96.806 212.168 L 96.789 308.347 97.684 308.973 C 98.720 309.699,164.439 309.896,176.600 309.210 C 196.683 308.077,211.571 301.808,219.808 291.017 C 221.273 289.098,224.800 283.430,224.800 282.995 C 224.800 282.852,225.335 281.515,225.989 280.026 C 230.534 269.670,231.269 249.745,227.630 235.518 C 226.576 231.396,225.471 229.757,219.400 223.309 C 215.255 218.907,215.022 217.421,218.089 214.938 C 219.142 214.085,221.336 210.546,223.135 206.800 C 232.375 187.555,229.670 156.685,217.578 143.400 C 214.648 140.181,208.778 135.200,207.914 135.200 C 207.723 135.200,207.066 134.829,206.453 134.376 C 203.449 132.155,192.637 128.514,186.200 127.556 C 180.785 126.749,118.452 126.429,117.497 127.202 C 116.595 127.934,116.375 191.206,117.272 192.286 C 117.644 192.735,123.012 192.808,148.561 192.714 L 179.400 192.600 182.101 191.429 C 183.701 190.735,185.071 189.838,185.464 189.229 C 185.828 188.663,186.353 188.064,186.632 187.898 C 189.641 186.099,188.900 173.744,185.495 168.937 C 184.646 167.740,184.116 167.362,180.800 165.590 C 179.103 164.683,138.931 164.261,137.874 165.139 C 137.442 165.497,137.371 167.244,137.519 173.913 C 137.770 185.233,137.566 185.600,131.034 185.600 C 124.148 185.600,124.400 186.254,124.400 168.363 L 124.400 154.445 125.365 153.322 L 126.331 152.200 152.265 152.200 C 175.987 152.200,178.486 152.263,181.554 152.937 C 188.216 154.402,193.057 157.993,197.188 164.534 C 207.242 180.453,199.313 201.551,182.125 204.615 C 176.241 205.664,106.817 205.443,105.454 204.371 L 104.400 203.542 104.400 159.997 C 104.400 134.167,104.551 116.055,104.771 115.475 C 105.401 113.819,106.146 113.793,147.000 114.017 L 186.600 114.235 193.041 115.710 C 196.583 116.522,200.273 117.545,201.241 117.984 C 202.208 118.423,203.272 118.786,203.604 118.791 C 203.937 118.796,205.647 119.515,207.404 120.390 C 209.162 121.264,210.803 121.984,211.051 121.990 C 211.299 121.995,211.737 122.283,212.024 122.629 C 212.311 122.975,213.242 123.613,214.092 124.047 C 218.954 126.527,227.524 134.858,231.075 140.555 C 232.616 143.028,236.000 149.584,236.000 150.098 C 236.000 150.301,236.515 151.757,237.145 153.333 C 237.775 154.910,238.899 158.990,239.643 162.400 L 240.996 168.600 240.975 179.600 L 240.954 190.600 239.460 197.148 C 238.639 200.750,237.633 204.351,237.225 205.151 C 236.817 205.950,236.269 207.401,236.007 208.375 C 235.745 209.349,235.096 210.785,234.565 211.566 C 234.034 212.347,233.597 213.169,233.593 213.393 C 233.589 213.617,233.049 214.592,232.393 215.560 C 231.039 217.557,230.905 218.611,231.868 219.675 C 241.992 230.862,245.723 259.515,239.592 279.000 C 237.728 284.924,234.018 292.822,232.129 294.886 C 231.670 295.389,230.994 296.393,230.627 297.119 C 230.260 297.844,228.124 300.275,225.880 302.521 C 222.233 306.170,220.518 307.581,215.600 310.975 C 213.918 312.136,207.404 315.418,206.000 315.811 C 205.450 315.965,204.460 316.416,203.800 316.814 C 203.140 317.211,201.120 317.913,199.311 318.374 C 197.502 318.834,195.522 319.404,194.911 319.641 C 189.971 321.549,184.801 321.741,134.377 321.892 L 86.554 322.036 85.477 321.189 L 84.400 320.342 84.400 217.847 C 84.400 110.827,84.344 114.469,86.000 113.878 C 87.092 113.487,94.438 113.592,95.217 114.009 M190.000 134.359 C 195.057 135.517,200.122 137.494,202.183 139.115 C 202.801 139.602,203.462 140.000,203.651 140.000 C 206.150 140.000,214.937 150.831,218.250 157.993 C 223.187 168.668,223.477 189.482,218.800 197.400 C 218.410 198.060,217.961 199.050,217.801 199.600 C 217.396 200.999,214.069 206.613,213.156 207.440 C 212.740 207.816,212.400 208.303,212.400 208.521 C 212.400 209.069,206.141 215.101,203.863 216.747 C 201.656 218.342,201.568 218.845,203.300 219.951 C 206.906 222.255,208.028 223.149,210.700 225.851 C 226.254 241.582,227.441 269.385,213.281 286.290 C 211.198 288.776,208.651 291.381,207.431 292.271 C 192.760 302.982,193.371 302.883,142.665 302.719 L 105.929 302.600 105.165 301.656 C 103.930 300.130,103.974 234.208,105.211 232.880 C 106.465 231.534,105.701 231.557,143.800 231.711 C 184.030 231.874,183.040 231.809,188.778 234.699 C 204.305 242.519,207.205 266.167,194.005 277.326 C 190.251 280.501,188.217 281.559,183.058 283.025 C 180.489 283.755,127.343 283.919,126.002 283.201 C 124.534 282.415,124.400 281.093,124.400 267.400 C 124.400 250.387,124.136 250.955,131.920 251.258 C 137.526 251.476,137.397 251.240,137.413 261.313 C 137.421 266.373,137.588 269.683,137.860 270.155 C 138.447 271.177,176.712 271.185,181.200 270.165 C 192.484 267.599,192.672 248.947,181.447 245.648 C 177.760 244.565,117.744 244.242,117.151 245.302 C 116.379 246.680,116.675 288.458,117.460 289.149 C 118.559 290.116,183.547 289.688,187.625 288.688 C 198.286 286.072,207.718 276.570,209.439 266.711 C 212.619 248.498,206.039 233.116,192.562 227.259 C 186.947 224.818,186.587 224.800,144.729 224.800 L 106.764 224.800 105.808 223.845 C 104.160 222.196,103.856 215.300,105.332 213.047 L 105.988 212.046 145.294 211.923 L 184.600 211.800 188.740 210.321 C 195.070 208.060,201.391 203.104,203.688 198.600 C 204.137 197.720,204.816 196.550,205.196 196.000 C 207.506 192.658,209.429 182.674,209.090 175.773 C 208.608 165.934,202.899 155.595,195.600 151.339 C 194.610 150.761,193.525 150.053,193.190 149.764 C 192.854 149.475,190.874 148.555,188.790 147.719 L 185.000 146.200 155.468 146.000 C 121.874 145.773,125.079 146.172,124.576 142.145 C 124.078 138.159,124.512 135.207,125.752 134.140 L 126.845 133.200 155.922 133.207 L 185.000 133.214 190.000 134.359 " stroke="none" fill="#235b83" fill-rule="evenodd"></path><path id="path1" d="M308.004 114.561 C 307.202 114.921,307.200 115.154,307.200 212.261 C 307.200 320.863,307.455 310.722,304.710 311.407 C 302.026 312.077,276.886 311.402,276.041 310.638 L 275.200 309.876 275.200 217.512 C 275.200 155.984,275.335 124.895,275.605 124.391 C 276.729 122.291,285.271 122.291,286.395 124.391 C 286.665 124.895,286.800 154.237,286.800 212.145 C 286.800 290.701,286.861 299.204,287.429 299.771 C 288.358 300.701,293.606 300.650,294.767 299.700 L 295.624 299.000 295.608 207.021 C 295.595 134.306,295.488 114.974,295.096 114.719 C 294.537 114.355,266.997 114.468,266.630 114.836 C 266.254 115.213,266.357 319.317,266.733 319.693 C 267.341 320.301,314.866 320.137,315.254 319.526 C 315.839 318.603,315.686 115.369,315.100 114.885 C 314.445 114.343,309.038 114.097,308.004 114.561 M87.234 116.300 L 86.380 117.000 86.384 218.173 C 86.387 299.336,86.488 319.409,86.894 319.666 C 87.602 320.116,176.551 320.062,181.200 319.609 C 192.530 318.505,204.361 315.269,211.200 311.403 C 211.750 311.092,213.061 310.373,214.114 309.805 C 215.166 309.237,216.381 308.419,216.814 307.986 C 217.246 307.554,217.774 307.200,217.987 307.200 C 219.358 307.200,230.400 295.639,230.400 294.203 C 230.400 293.925,230.690 293.457,231.045 293.163 C 231.399 292.868,232.189 291.631,232.799 290.414 C 233.409 289.196,234.289 287.487,234.754 286.615 C 235.219 285.744,235.600 284.776,235.600 284.465 C 235.600 284.154,236.049 282.888,236.599 281.650 C 238.321 277.771,240.212 267.919,240.600 260.800 C 240.883 255.620,240.318 246.065,239.584 243.594 C 239.356 242.827,238.820 240.533,238.393 238.496 C 237.966 236.459,237.362 234.299,237.050 233.696 C 236.739 233.093,236.129 231.518,235.695 230.196 C 235.262 228.874,234.433 227.094,233.853 226.240 C 233.274 225.387,232.800 224.471,232.800 224.206 C 232.800 223.941,232.421 223.381,231.957 222.962 C 229.293 220.554,228.920 216.227,231.170 213.832 C 231.628 213.345,232.446 211.813,232.989 210.429 C 233.531 209.045,234.142 207.707,234.345 207.456 C 234.549 207.205,235.207 205.200,235.809 203.000 C 236.410 200.800,237.127 198.190,237.402 197.200 C 239.400 190.009,239.251 168.309,237.151 160.604 C 236.730 159.062,236.120 156.720,235.795 155.400 C 234.725 151.055,231.710 144.815,227.886 139.032 C 225.922 136.061,219.471 129.619,216.655 127.818 C 215.444 127.043,214.366 126.268,214.259 126.095 C 214.027 125.720,208.519 122.947,204.600 121.232 C 203.060 120.558,200.540 119.724,199.000 119.378 C 197.460 119.032,195.390 118.475,194.400 118.140 C 189.532 116.491,185.011 116.304,145.481 116.115 C 116.259 115.975,107.429 116.044,106.981 116.416 C 106.176 117.084,106.096 202.490,106.900 203.051 C 107.181 203.247,123.685 203.309,144.600 203.191 L 181.800 202.983 185.374 201.692 C 187.339 200.982,189.319 200.063,189.774 199.649 C 190.228 199.236,191.063 198.650,191.630 198.349 C 194.788 196.666,198.147 190.450,198.845 185.000 C 199.616 178.976,198.634 169.831,197.022 168.012 C 196.724 167.675,196.214 166.757,195.890 165.971 C 195.565 165.185,194.766 163.925,194.113 163.171 C 193.461 162.417,192.763 161.506,192.563 161.146 C 191.488 159.211,185.152 155.734,181.000 154.801 C 178.941 154.338,127.639 154.200,127.186 154.656 C 126.997 154.845,126.812 161.109,126.773 168.576 C 126.689 184.513,126.392 183.501,131.129 183.405 C 135.390 183.319,135.200 183.789,135.200 173.351 C 135.200 163.354,135.263 163.120,138.078 162.600 C 142.334 161.815,178.595 162.598,180.891 163.525 C 190.513 167.412,194.176 181.916,187.475 189.595 C 183.145 194.557,184.530 194.390,147.682 194.395 L 116.364 194.400 115.375 193.411 L 114.386 192.423 114.493 159.377 L 114.600 126.331 115.742 125.348 L 116.885 124.365 149.742 124.488 L 182.600 124.611 188.800 125.948 C 192.210 126.683,195.720 127.553,196.600 127.880 C 197.480 128.207,199.112 128.798,200.227 129.193 C 205.359 131.011,216.169 138.382,217.772 141.157 C 217.976 141.511,218.606 142.281,219.172 142.869 C 220.786 144.548,222.225 146.476,223.000 148.000 C 223.392 148.770,224.037 149.815,224.432 150.323 C 224.827 150.830,225.459 152.180,225.837 153.323 C 226.214 154.465,226.756 155.760,227.042 156.200 C 227.327 156.640,227.931 158.530,228.383 160.400 C 228.835 162.270,229.506 164.790,229.874 166.000 C 230.709 168.745,230.895 189.106,230.111 191.800 C 229.854 192.680,229.118 195.380,228.475 197.800 C 226.372 205.714,222.754 212.746,218.517 217.155 C 217.365 218.354,217.362 218.950,218.504 219.871 C 219.461 220.643,225.572 227.514,227.108 229.545 C 227.608 230.206,228.268 231.458,228.575 232.328 C 228.881 233.198,229.414 234.453,229.757 235.118 C 231.637 238.753,232.484 260.418,231.086 269.082 C 229.760 277.290,225.953 286.225,221.442 291.711 C 219.331 294.280,214.678 298.857,213.063 299.955 C 209.361 302.472,206.943 304.030,206.200 304.377 C 203.328 305.720,198.835 307.600,198.499 307.600 C 198.279 307.600,196.382 308.128,194.285 308.774 C 186.408 311.199,182.178 311.394,137.600 311.397 C 95.885 311.400,95.807 311.397,95.180 309.748 C 94.929 309.087,94.795 274.384,94.806 212.714 C 94.818 140.897,94.707 116.569,94.362 116.155 C 93.646 115.292,88.332 115.400,87.234 116.300 M127.371 135.720 C 126.543 136.184,126.562 142.504,127.393 143.194 C 127.850 143.573,134.086 143.673,154.693 143.630 L 181.400 143.575 185.400 144.618 C 187.600 145.192,189.850 145.912,190.400 146.218 C 190.950 146.524,192.210 147.165,193.200 147.643 C 195.860 148.928,199.706 152.063,203.206 155.800 C 204.491 157.172,205.933 159.313,207.114 161.600 C 207.739 162.810,208.464 164.160,208.726 164.600 C 211.904 169.947,211.714 187.367,208.410 193.572 C 207.992 194.357,207.276 195.810,206.819 196.800 C 203.385 204.246,195.120 210.786,186.314 213.025 L 182.200 214.071 144.723 214.019 C 107.789 213.969,107.239 213.979,106.823 214.758 C 106.201 215.919,106.279 221.402,106.925 221.938 C 107.294 222.244,119.063 222.409,146.425 222.493 L 185.400 222.612 189.400 223.964 C 191.600 224.708,193.850 225.626,194.400 226.006 C 194.950 226.385,196.122 227.061,197.005 227.508 C 198.611 228.320,203.693 233.124,205.625 235.656 C 207.481 238.088,209.124 241.428,210.638 245.846 L 212.131 250.200 212.156 258.200 C 212.178 264.982,212.074 266.474,211.468 268.000 C 211.075 268.990,210.469 270.610,210.121 271.600 C 207.761 278.311,199.158 286.451,191.200 289.504 C 185.621 291.644,187.137 291.566,150.517 291.618 L 116.289 291.667 115.445 290.823 C 114.608 289.987,114.599 289.759,114.486 267.889 C 114.361 243.604,114.320 244.269,115.986 243.407 C 117.484 242.632,175.935 242.487,180.301 243.247 C 193.855 245.607,195.908 265.434,183.231 271.540 L 180.200 273.000 158.511 273.000 C 131.952 273.000,135.071 274.297,135.164 263.291 C 135.251 253.069,135.328 253.263,131.184 253.263 C 126.464 253.263,126.754 252.342,126.735 267.371 C 126.723 277.351,126.834 280.197,127.260 280.837 C 127.877 281.765,173.048 282.046,180.100 281.166 C 190.476 279.872,196.258 275.284,199.075 266.112 C 201.181 259.256,200.049 248.396,196.769 243.992 C 193.370 239.429,190.093 237.020,184.877 235.251 L 180.600 233.800 144.064 233.680 C 116.583 233.591,107.389 233.677,106.964 234.029 C 106.171 234.688,106.114 299.055,106.906 300.139 C 107.380 300.788,109.781 300.822,145.806 300.688 L 184.200 300.546 188.600 299.517 C 193.280 298.424,199.063 296.088,200.931 294.538 C 201.553 294.022,202.248 293.600,202.476 293.600 C 203.762 293.600,213.126 284.424,214.197 282.115 C 214.583 281.282,215.202 280.240,215.573 279.800 C 221.082 273.253,222.466 251.230,218.023 240.791 C 217.350 239.210,216.800 237.745,216.800 237.536 C 216.800 235.432,207.857 224.548,204.597 222.685 C 199.249 219.629,198.817 217.392,203.102 214.949 C 216.996 207.028,223.958 182.040,217.743 162.400 C 216.942 159.870,216.126 157.594,215.929 157.342 C 215.733 157.091,215.032 155.831,214.371 154.542 C 212.585 151.058,211.705 149.885,208.332 146.489 C 203.228 141.349,200.174 139.483,193.000 137.119 L 189.000 135.800 176.000 135.701 C 139.605 135.424,127.891 135.429,127.371 135.720 " stroke="none" fill="#8bbde4" fill-rule="evenodd"></path><path id="path2" d="M307.800 112.264 C 307.360 112.359,306.550 112.777,306.000 113.195 L 305.000 113.954 304.906 211.452 C 304.849 269.980,304.664 309.096,304.444 309.316 C 303.942 309.818,278.890 309.676,277.938 309.167 C 277.224 308.785,277.200 305.791,277.200 217.234 L 277.200 125.697 278.402 125.199 C 279.728 124.650,283.786 124.826,284.420 125.460 C 284.673 125.713,284.846 156.855,284.906 213.362 L 285.000 300.871 285.944 301.635 C 287.341 302.766,295.059 302.766,296.456 301.635 L 297.400 300.871 297.503 207.620 L 297.605 114.369 296.621 113.384 L 295.636 112.400 280.847 112.400 L 266.058 112.400 265.229 113.454 L 264.400 114.508 264.400 217.410 C 264.400 318.121,264.416 320.331,265.164 321.256 L 265.929 322.200 289.864 322.322 C 306.362 322.407,314.265 322.309,315.298 322.007 C 318.244 321.146,318.000 330.617,318.000 216.989 L 318.000 114.738 316.831 113.569 C 315.768 112.507,315.412 112.400,312.931 112.395 C 311.429 112.392,309.840 112.322,309.400 112.241 C 308.960 112.159,308.240 112.170,307.800 112.264 M296.103 114.429 C 297.202 115.784,296.991 299.581,295.888 300.683 C 294.446 302.126,287.209 301.911,286.401 300.402 C 286.108 299.855,285.981 272.930,285.986 212.707 C 285.990 164.908,285.856 125.586,285.689 125.325 C 285.184 124.539,283.276 124.000,281.000 124.000 C 278.723 124.000,276.814 124.540,276.314 125.325 C 275.691 126.305,275.942 308.567,276.567 309.424 C 277.362 310.511,303.436 310.861,305.047 309.806 L 306.000 309.182 306.000 212.053 C 306.000 115.103,306.001 114.923,306.808 114.193 C 308.022 113.095,313.841 112.989,315.559 114.034 L 316.800 114.788 316.800 217.165 L 316.800 319.542 315.735 320.380 C 314.376 321.449,267.144 321.516,265.861 320.451 C 264.806 319.575,264.845 115.241,265.900 114.298 C 267.450 112.913,294.969 113.032,296.103 114.429 M86.000 113.878 C 84.344 114.469,84.400 110.827,84.400 217.847 L 84.400 320.342 85.477 321.189 L 86.554 322.036 134.377 321.892 C 184.801 321.741,189.971 321.549,194.911 319.641 C 195.522 319.404,197.502 318.834,199.311 318.374 C 201.120 317.913,203.140 317.211,203.800 316.814 C 204.460 316.416,205.450 315.965,206.000 315.811 C 207.404 315.418,213.918 312.136,215.600 310.975 C 220.518 307.581,222.233 306.170,225.880 302.521 C 228.124 300.275,230.260 297.844,230.627 297.119 C 230.994 296.393,231.670 295.389,232.129 294.886 C 234.018 292.822,237.728 284.924,239.592 279.000 C 245.723 259.515,241.992 230.862,231.868 219.675 C 230.905 218.611,231.039 217.557,232.393 215.560 C 233.049 214.592,233.589 213.617,233.593 213.393 C 233.597 213.169,234.034 212.347,234.565 211.566 C 235.096 210.785,235.745 209.349,236.007 208.375 C 236.269 207.401,236.817 205.950,237.225 205.151 C 237.633 204.351,238.639 200.750,239.460 197.148 L 240.954 190.600 240.975 179.600 L 240.996 168.600 239.643 162.400 C 238.899 158.990,237.775 154.910,237.145 153.333 C 236.515 151.757,236.000 150.301,236.000 150.098 C 236.000 149.584,232.616 143.028,231.075 140.555 C 227.524 134.858,218.954 126.527,214.092 124.047 C 213.242 123.613,212.311 122.975,212.024 122.629 C 211.737 122.283,211.299 121.995,211.051 121.990 C 210.803 121.984,209.162 121.264,207.404 120.390 C 205.647 119.515,203.937 118.796,203.604 118.791 C 203.272 118.786,202.208 118.423,201.241 117.984 C 200.273 117.545,196.583 116.522,193.041 115.710 L 186.600 114.235 147.000 114.017 C 106.146 113.793,105.401 113.819,104.771 115.475 C 104.551 116.055,104.400 134.167,104.400 159.997 L 104.400 203.542 105.454 204.371 C 106.817 205.443,176.241 205.664,182.125 204.615 C 200.882 201.271,208.158 176.089,194.714 161.042 C 186.960 152.362,186.181 152.200,152.265 152.200 L 126.331 152.200 125.365 153.322 L 124.400 154.445 124.400 168.363 C 124.400 186.254,124.148 185.600,131.034 185.600 C 137.566 185.600,137.770 185.233,137.519 173.913 C 137.371 167.244,137.442 165.497,137.874 165.139 C 138.931 164.261,179.103 164.683,180.800 165.590 C 184.116 167.362,184.646 167.740,185.495 168.937 C 188.900 173.744,189.641 186.099,186.632 187.898 C 186.353 188.064,185.828 188.663,185.464 189.229 C 185.071 189.838,183.701 190.735,182.101 191.429 L 179.400 192.600 148.561 192.714 C 123.012 192.808,117.644 192.735,117.272 192.286 C 116.375 191.206,116.595 127.934,117.497 127.202 C 118.452 126.429,180.785 126.749,186.200 127.556 C 192.637 128.514,203.449 132.155,206.453 134.376 C 207.066 134.829,207.723 135.200,207.914 135.200 C 208.778 135.200,214.648 140.181,217.578 143.400 C 229.670 156.685,232.375 187.555,223.135 206.800 C 221.336 210.546,219.142 214.085,218.089 214.938 C 215.022 217.421,215.255 218.907,219.400 223.309 C 225.471 229.757,226.576 231.396,227.630 235.518 C 231.269 249.745,230.534 269.670,225.989 280.026 C 225.335 281.515,224.800 282.852,224.800 282.995 C 224.800 283.430,221.273 289.098,219.808 291.017 C 211.571 301.808,196.683 308.077,176.600 309.210 C 164.439 309.896,98.720 309.699,97.684 308.973 L 96.789 308.347 96.806 212.168 C 96.823 112.977,96.854 114.885,95.217 114.009 C 94.438 113.592,87.092 113.487,86.000 113.878 M95.038 115.242 C 95.782 116.065,95.802 118.314,95.888 212.516 C 95.967 299.413,96.038 309.009,96.602 309.574 C 97.396 310.368,164.946 310.734,177.976 310.015 C 205.494 308.496,222.360 296.838,228.597 275.025 C 232.554 261.184,231.301 237.581,226.208 230.012 C 224.796 227.914,224.204 227.220,219.500 222.151 C 216.324 218.728,216.272 218.395,218.500 215.681 C 221.404 212.144,221.849 211.486,223.359 208.485 C 233.583 188.165,230.987 155.532,218.145 142.929 C 217.675 142.468,217.135 141.841,216.945 141.537 C 216.325 140.543,211.053 136.146,208.706 134.665 C 201.227 129.946,194.100 127.665,182.263 126.199 C 174.088 125.187,117.579 125.319,116.643 126.352 C 115.574 127.533,115.576 191.668,116.645 192.850 C 117.332 193.609,118.082 193.625,148.774 193.514 L 180.200 193.400 182.200 192.419 C 193.144 187.048,191.986 169.013,180.400 164.388 C 178.948 163.808,140.620 163.257,138.514 163.786 C 136.083 164.396,135.998 164.779,136.272 173.896 L 136.521 182.214 135.527 183.370 C 133.798 185.381,126.663 185.014,125.789 182.869 C 124.990 180.908,125.585 154.613,126.444 153.900 C 127.571 152.966,175.666 152.847,180.814 153.766 C 202.755 157.681,207.958 192.393,188.000 201.713 C 182.549 204.258,184.523 204.142,143.978 204.295 C 108.407 204.429,106.929 204.406,106.288 203.697 C 105.280 202.584,105.197 117.275,106.202 115.741 L 106.845 114.760 145.322 114.901 L 183.800 115.043 189.707 116.110 C 214.024 120.499,229.752 133.409,236.594 154.594 C 242.272 172.175,241.152 195.846,233.925 210.978 C 232.695 213.554,232.597 213.727,231.482 215.302 C 230.302 216.967,230.229 218.802,231.281 220.374 C 238.698 231.459,241.620 241.900,241.588 257.198 C 241.559 270.438,239.012 281.096,233.515 290.972 C 224.500 307.170,207.511 317.544,185.671 320.187 C 181.543 320.687,121.506 321.067,87.529 320.808 C 85.000 320.789,85.200 329.624,85.200 218.197 C 85.200 113.713,85.179 115.010,86.878 114.685 C 89.886 114.110,94.285 114.410,95.038 115.242 M125.752 134.140 C 124.512 135.207,124.078 138.159,124.576 142.145 C 125.079 146.172,121.874 145.773,155.468 146.000 L 185.000 146.200 188.790 147.719 C 190.874 148.555,192.854 149.475,193.190 149.764 C 193.525 150.053,194.610 150.761,195.600 151.339 C 202.899 155.595,208.608 165.934,209.090 175.773 C 209.429 182.674,207.506 192.658,205.196 196.000 C 204.816 196.550,204.137 197.720,203.688 198.600 C 201.391 203.104,195.070 208.060,188.740 210.321 L 184.600 211.800 145.294 211.923 L 105.988 212.046 105.332 213.047 C 103.856 215.300,104.160 222.196,105.808 223.845 L 106.764 224.800 144.729 224.800 C 186.587 224.800,186.947 224.818,192.562 227.259 C 206.039 233.116,212.619 248.498,209.439 266.711 C 207.718 276.570,198.286 286.072,187.625 288.688 C 183.547 289.688,118.559 290.116,117.460 289.149 C 116.675 288.458,116.379 246.680,117.151 245.302 C 117.744 244.242,177.760 244.565,181.447 245.648 C 192.672 248.947,192.484 267.599,181.200 270.165 C 176.712 271.185,138.447 271.177,137.860 270.155 C 137.588 269.683,137.421 266.373,137.413 261.313 C 137.397 251.240,137.526 251.476,131.920 251.258 C 124.136 250.955,124.400 250.387,124.400 267.400 C 124.400 281.093,124.534 282.415,126.002 283.201 C 127.343 283.919,180.489 283.755,183.058 283.025 C 188.217 281.559,190.251 280.501,194.005 277.326 C 207.205 266.167,204.305 242.519,188.778 234.699 C 183.040 231.809,184.030 231.874,143.800 231.711 C 105.701 231.557,106.465 231.534,105.211 232.880 C 103.974 234.208,103.930 300.130,105.165 301.656 L 105.929 302.600 142.665 302.719 C 193.371 302.883,192.760 302.982,207.431 292.271 C 208.651 291.381,211.198 288.776,213.281 286.290 C 227.441 269.385,226.254 241.582,210.700 225.851 C 208.028 223.149,206.906 222.255,203.300 219.951 C 201.568 218.845,201.656 218.342,203.863 216.747 C 206.141 215.101,212.400 209.069,212.400 208.521 C 212.400 208.303,212.740 207.816,213.156 207.440 C 214.069 206.613,217.396 200.999,217.801 199.600 C 217.961 199.050,218.410 198.060,218.800 197.400 C 223.477 189.482,223.187 168.668,218.250 157.993 C 214.937 150.831,206.150 140.000,203.651 140.000 C 203.462 140.000,202.801 139.602,202.183 139.115 C 200.122 137.494,195.057 135.517,190.000 134.359 L 185.000 133.214 155.922 133.207 L 126.845 133.200 125.752 134.140 M188.549 135.027 C 212.432 138.889,225.779 163.360,219.585 191.928 C 218.698 196.019,215.083 203.866,212.734 206.800 C 208.702 211.837,208.056 212.483,204.100 215.439 C 200.353 218.238,200.365 218.582,204.300 221.467 C 216.156 230.161,221.465 240.904,221.894 257.070 C 222.483 279.282,208.222 297.061,186.518 301.178 C 182.929 301.858,106.830 301.801,106.146 301.117 C 105.189 300.161,105.309 234.002,106.268 233.300 C 107.306 232.542,177.769 232.606,182.000 233.369 C 206.425 237.775,208.435 274.027,184.671 281.545 L 181.400 282.580 154.541 282.706 L 127.681 282.832 126.598 281.900 L 125.515 280.968 125.527 267.715 C 125.541 251.382,125.327 251.964,131.237 252.172 C 136.432 252.355,136.608 252.717,136.298 262.576 C 136.065 269.959,136.283 271.096,138.070 271.822 C 140.210 272.692,179.550 271.894,182.102 270.930 C 194.273 266.327,193.212 247.271,180.615 244.228 C 178.040 243.607,117.148 243.881,116.511 244.517 C 115.574 245.455,115.642 288.393,116.583 289.830 L 117.235 290.826 150.918 290.706 L 184.600 290.585 188.176 289.461 C 204.061 284.467,213.115 270.832,211.244 254.720 C 209.281 237.809,200.583 227.310,186.137 224.414 C 182.223 223.630,180.697 223.600,144.460 223.600 L 106.845 223.600 106.223 222.711 C 105.441 221.595,105.367 215.484,106.118 214.000 L 106.623 213.000 145.812 212.789 C 189.419 212.553,186.564 212.739,192.498 209.751 C 214.201 198.821,216.367 164.263,196.200 150.685 C 187.922 145.112,188.675 145.213,155.544 145.206 C 122.847 145.199,125.901 145.686,125.662 140.436 C 125.481 136.453,125.732 135.366,126.983 134.710 C 128.562 133.883,183.212 134.164,188.549 135.027 " stroke="none" fill="#4e80a7" fill-rule="evenodd"></path><path id="path3" d="M266.700 114.057 C 266.095 114.282,265.599 114.677,265.599 114.933 C 265.333 218.643,265.665 319.855,266.271 320.300 C 266.848 320.723,310.208 321.224,314.179 320.854 C 316.600 320.628,316.400 329.960,316.400 217.161 L 316.400 114.845 315.511 114.223 C 314.192 113.299,308.390 113.353,307.235 114.300 L 306.382 115.000 306.393 212.069 L 306.405 309.138 305.330 309.984 C 303.972 311.052,277.939 311.113,276.661 310.051 C 276.050 309.543,276.000 302.553,276.000 217.413 L 276.000 125.324 276.842 124.562 C 278.328 123.217,285.203 123.588,285.761 125.043 C 285.898 125.401,286.010 164.687,286.010 212.347 C 286.009 281.458,286.111 299.202,286.515 300.000 C 287.257 301.464,294.572 301.761,295.700 300.373 C 296.754 299.075,296.793 115.224,295.739 114.349 C 294.907 113.658,268.487 113.392,266.700 114.057 M315.100 114.885 C 315.686 115.369,315.839 318.603,315.254 319.526 C 314.866 320.137,267.341 320.301,266.733 319.693 C 266.357 319.317,266.254 115.213,266.630 114.836 C 266.997 114.468,294.537 114.355,295.096 114.719 C 295.488 114.974,295.595 134.306,295.608 207.021 L 295.624 299.000 294.767 299.700 C 293.606 300.650,288.358 300.701,287.429 299.771 C 286.861 299.204,286.800 290.701,286.800 212.145 C 286.800 154.237,286.665 124.895,286.395 124.391 C 285.271 122.291,276.729 122.291,275.605 124.391 C 275.335 124.895,275.200 155.984,275.200 217.512 L 275.200 309.876 276.041 310.638 C 276.886 311.402,302.026 312.077,304.710 311.407 C 307.455 310.722,307.200 320.863,307.200 212.261 C 307.200 115.154,307.202 114.921,308.004 114.561 C 309.038 114.097,314.445 114.343,315.100 114.885 M86.734 115.069 C 86.368 115.166,85.960 115.527,85.828 115.872 C 85.371 117.063,85.555 319.715,86.014 320.174 C 86.677 320.837,180.227 320.761,185.085 320.094 C 193.553 318.930,202.616 316.362,209.000 313.316 C 212.297 311.743,216.743 309.216,217.030 308.751 C 217.161 308.540,217.927 307.949,218.734 307.437 C 222.160 305.264,226.354 300.852,231.510 294.000 C 240.579 281.947,244.021 256.018,238.997 237.600 C 237.742 232.997,235.495 227.147,234.510 225.913 C 234.284 225.631,233.782 224.770,233.394 224.000 C 233.005 223.230,232.245 222.070,231.704 221.423 C 229.849 219.201,229.809 216.583,231.599 214.600 C 233.773 212.191,237.303 202.059,238.636 194.400 C 243.122 168.630,235.261 140.886,220.331 129.800 C 219.739 129.360,218.214 128.202,216.944 127.226 C 210.244 122.081,200.045 118.070,189.200 116.315 C 183.999 115.473,182.390 115.433,145.600 115.220 L 107.400 115.000 106.500 115.922 L 105.600 116.845 105.600 159.760 C 105.600 200.828,105.631 202.705,106.331 203.338 C 107.255 204.174,176.848 204.363,181.560 203.543 C 190.773 201.938,197.378 195.770,199.315 186.961 C 202.772 171.244,194.611 156.550,181.029 154.039 C 177.098 153.313,127.286 153.398,126.474 154.133 C 125.865 154.684,125.806 156.076,125.858 168.656 L 125.915 182.568 126.980 183.484 C 127.894 184.271,128.489 184.400,131.193 184.400 C 136.040 184.400,136.000 184.490,136.000 173.555 L 136.000 164.818 136.999 164.164 C 138.348 163.280,177.136 163.258,180.063 164.139 C 192.923 168.009,193.399 189.587,180.704 193.228 C 177.981 194.009,117.143 193.721,116.345 192.923 C 115.303 191.880,115.146 128.152,116.182 126.571 C 117.134 125.119,116.551 125.141,149.825 125.305 C 191.040 125.509,196.074 126.330,209.699 135.064 C 212.293 136.726,220.000 144.022,220.000 144.815 C 220.000 144.993,220.433 145.653,220.961 146.281 C 229.970 156.987,232.750 183.318,226.737 200.980 C 224.745 206.833,220.238 215.064,218.406 216.196 C 216.533 217.354,216.716 218.729,219.090 221.320 C 226.204 229.087,227.564 231.037,228.942 235.454 C 230.932 241.829,231.806 260.485,230.482 268.309 C 228.591 279.484,223.339 289.953,216.571 296.039 C 215.983 296.568,215.119 297.367,214.651 297.815 C 212.353 300.017,206.628 303.369,201.000 305.808 C 197.667 307.253,188.201 309.489,183.374 309.973 C 175.951 310.716,97.726 310.575,96.568 309.816 L 95.600 309.182 95.600 212.880 C 95.600 126.367,95.537 116.488,94.977 115.689 C 94.371 114.823,89.146 114.430,86.734 115.069 M94.362 116.155 C 94.707 116.569,94.818 140.897,94.806 212.714 C 94.795 274.384,94.929 309.087,95.180 309.748 C 95.807 311.397,95.885 311.400,137.600 311.397 C 182.178 311.394,186.408 311.199,194.285 308.774 C 196.382 308.128,198.279 307.600,198.499 307.600 C 198.835 307.600,203.328 305.720,206.200 304.377 C 206.943 304.030,209.361 302.472,213.063 299.955 C 225.364 291.593,231.744 276.513,231.745 255.800 C 231.745 245.937,230.922 237.369,229.757 235.118 C 229.414 234.453,228.881 233.198,228.575 232.328 C 228.268 231.458,227.608 230.206,227.108 229.545 C 225.572 227.514,219.461 220.643,218.504 219.871 C 217.362 218.950,217.365 218.354,218.517 217.155 C 222.754 212.746,226.372 205.714,228.475 197.800 C 229.118 195.380,229.854 192.680,230.111 191.800 C 230.895 189.106,230.709 168.745,229.874 166.000 C 229.506 164.790,228.835 162.270,228.383 160.400 C 227.931 158.530,227.327 156.640,227.042 156.200 C 226.756 155.760,226.214 154.465,225.837 153.323 C 225.459 152.180,224.827 150.830,224.432 150.323 C 224.037 149.815,223.392 148.770,223.000 148.000 C 222.225 146.476,220.786 144.548,219.172 142.869 C 218.606 142.281,217.976 141.511,217.772 141.157 C 216.169 138.382,205.359 131.011,200.227 129.193 C 199.112 128.798,197.480 128.207,196.600 127.880 C 195.720 127.553,192.210 126.683,188.800 125.948 L 182.600 124.611 149.742 124.488 L 116.885 124.365 115.742 125.348 L 114.600 126.331 114.493 159.377 L 114.386 192.423 115.375 193.411 L 116.364 194.400 147.682 194.395 C 184.530 194.390,183.145 194.557,187.475 189.595 C 194.176 181.916,190.513 167.412,180.891 163.525 C 178.595 162.598,142.334 161.815,138.078 162.600 C 135.263 163.120,135.200 163.354,135.200 173.351 C 135.200 183.789,135.390 183.319,131.129 183.405 C 126.392 183.501,126.689 184.513,126.773 168.576 C 126.812 161.109,126.997 154.845,127.186 154.656 C 127.639 154.200,178.941 154.338,181.000 154.801 C 185.152 155.734,191.488 159.211,192.563 161.146 C 192.763 161.506,193.461 162.417,194.113 163.171 C 194.766 163.925,195.565 165.185,195.890 165.971 C 196.214 166.757,196.724 167.675,197.022 168.012 C 198.634 169.831,199.616 178.976,198.845 185.000 C 198.147 190.450,194.788 196.666,191.630 198.349 C 191.063 198.650,190.228 199.236,189.774 199.649 C 189.319 200.063,187.339 200.982,185.374 201.692 L 181.800 202.983 144.600 203.191 C 123.685 203.309,107.181 203.247,106.900 203.051 C 106.096 202.490,106.176 117.084,106.981 116.416 C 107.429 116.044,116.259 115.975,145.481 116.115 C 185.011 116.304,189.532 116.491,194.400 118.140 C 195.390 118.475,197.460 119.032,199.000 119.378 C 200.540 119.724,203.060 120.558,204.600 121.232 C 208.519 122.947,214.027 125.720,214.259 126.095 C 214.366 126.268,215.444 127.043,216.655 127.818 C 219.471 129.619,225.922 136.061,227.886 139.032 C 231.710 144.815,234.725 151.055,235.795 155.400 C 236.120 156.720,236.730 159.062,237.151 160.604 C 239.251 168.309,239.400 190.009,237.402 197.200 C 237.127 198.190,236.410 200.800,235.809 203.000 C 235.207 205.200,234.549 207.205,234.345 207.456 C 234.142 207.707,233.531 209.045,232.989 210.429 C 232.446 211.813,231.628 213.345,231.170 213.832 C 228.920 216.227,229.293 220.554,231.957 222.962 C 232.421 223.381,232.800 223.941,232.800 224.206 C 232.800 224.471,233.274 225.387,233.853 226.240 C 234.433 227.094,235.262 228.874,235.695 230.196 C 236.129 231.518,236.739 233.093,237.050 233.696 C 237.362 234.299,237.966 236.459,238.393 238.496 C 238.820 240.533,239.356 242.827,239.584 243.594 C 240.318 246.065,240.883 255.620,240.600 260.800 C 240.212 267.919,238.321 277.771,236.599 281.650 C 236.049 282.888,235.600 284.154,235.600 284.465 C 235.600 284.776,235.219 285.744,234.754 286.615 C 234.289 287.487,233.409 289.196,232.799 290.414 C 232.189 291.631,231.399 292.868,231.045 293.163 C 230.690 293.457,230.400 293.925,230.400 294.203 C 230.400 295.639,219.358 307.200,217.987 307.200 C 217.774 307.200,217.246 307.554,216.814 307.986 C 216.381 308.419,215.166 309.237,214.114 309.805 C 213.061 310.373,211.750 311.092,211.200 311.403 C 204.361 315.269,192.530 318.505,181.200 319.609 C 176.551 320.062,87.602 320.116,86.894 319.666 C 86.488 319.409,86.387 299.336,86.384 218.173 L 86.380 117.000 87.234 116.300 C 88.332 115.400,93.646 115.292,94.362 116.155 M126.768 135.316 C 124.928 137.030,126.026 144.765,128.116 144.811 C 128.382 144.817,140.750 144.817,155.600 144.812 C 187.819 144.802,188.294 144.868,196.506 150.561 C 208.037 158.556,213.463 175.987,208.845 190.200 C 205.787 199.610,199.715 206.774,191.713 210.415 C 185.879 213.069,188.104 212.940,145.501 213.095 L 106.801 213.237 106.243 214.318 C 105.523 215.715,105.600 221.636,106.350 222.540 C 106.826 223.113,110.755 223.189,145.540 223.292 L 184.200 223.406 188.001 224.455 C 199.871 227.730,207.308 235.761,210.456 248.702 C 215.153 268.012,206.272 284.150,187.800 289.874 L 184.200 290.989 150.643 290.995 L 117.087 291.000 116.313 289.964 C 115.241 288.528,115.149 246.148,116.215 244.521 L 116.833 243.577 148.917 243.689 L 181.000 243.800 183.200 244.941 C 188.753 247.822,190.600 251.032,190.600 257.800 C 190.600 265.097,188.126 268.963,182.000 271.234 L 179.400 272.198 159.210 272.320 C 148.105 272.387,138.613 272.339,138.115 272.214 C 136.141 271.719,135.909 270.647,135.852 261.765 C 135.790 251.963,136.018 252.400,130.968 252.400 C 128.395 252.400,127.495 252.556,126.791 253.127 L 125.893 253.854 125.889 267.358 C 125.885 280.373,125.914 280.892,126.692 281.670 C 127.953 282.931,177.292 282.816,183.191 281.539 C 188.031 280.490,191.276 278.782,194.204 275.743 C 207.612 261.821,201.112 238.079,182.724 233.814 C 178.488 232.832,106.835 232.864,106.115 233.848 C 105.368 234.871,105.370 298.922,106.118 300.400 L 106.624 301.400 146.012 301.390 L 185.400 301.380 189.400 300.281 C 213.688 293.609,226.294 271.411,220.338 245.800 C 219.455 242.000,216.765 235.150,215.627 233.800 C 215.256 233.360,214.755 232.550,214.514 232.000 C 213.735 230.226,207.651 224.091,204.391 221.794 C 199.813 218.567,199.796 218.286,203.988 215.237 C 206.644 213.304,211.600 208.549,211.600 207.931 C 211.600 207.764,212.107 207.037,212.728 206.314 C 219.236 198.729,222.522 180.483,219.825 166.900 C 216.529 150.303,203.627 137.391,188.168 135.218 C 182.103 134.366,127.694 134.452,126.768 135.316 M176.000 135.701 L 189.000 135.800 193.000 137.119 C 202.897 140.381,210.136 146.283,214.371 154.542 C 215.032 155.831,215.733 157.091,215.929 157.342 C 216.126 157.594,216.942 159.870,217.743 162.400 C 223.958 182.040,216.996 207.028,203.102 214.949 C 198.817 217.392,199.249 219.629,204.597 222.685 C 207.857 224.548,216.800 235.432,216.800 237.536 C 216.800 237.745,217.350 239.210,218.023 240.791 C 222.466 251.230,221.082 273.253,215.573 279.800 C 215.202 280.240,214.583 281.282,214.197 282.115 C 213.126 284.424,203.762 293.600,202.476 293.600 C 202.248 293.600,201.553 294.022,200.931 294.538 C 199.063 296.088,193.280 298.424,188.600 299.517 L 184.200 300.546 145.806 300.688 C 109.781 300.822,107.380 300.788,106.906 300.139 C 106.114 299.055,106.171 234.688,106.964 234.029 C 107.389 233.677,116.583 233.591,144.064 233.680 L 180.600 233.800 184.877 235.251 C 189.484 236.813,190.601 237.492,193.754 240.646 C 204.242 251.133,201.864 271.705,189.370 278.572 C 184.328 281.344,181.564 281.571,152.300 281.613 C 128.110 281.648,127.793 281.638,127.260 280.837 C 126.834 280.197,126.723 277.351,126.735 267.371 C 126.754 252.342,126.464 253.263,131.184 253.263 C 135.328 253.263,135.251 253.069,135.164 263.291 C 135.071 274.297,131.952 273.000,158.511 273.000 L 180.200 273.000 183.231 271.540 C 195.908 265.434,193.855 245.607,180.301 243.247 C 175.935 242.487,117.484 242.632,115.986 243.407 C 114.320 244.269,114.361 243.604,114.486 267.889 C 114.599 289.759,114.608 289.987,115.445 290.823 L 116.289 291.667 150.517 291.618 C 187.137 291.566,185.621 291.644,191.200 289.504 C 199.158 286.451,207.761 278.311,210.121 271.600 C 210.469 270.610,211.075 268.990,211.468 268.000 C 212.074 266.474,212.178 264.982,212.156 258.200 L 212.131 250.200 210.638 245.846 C 209.124 241.428,207.481 238.088,205.625 235.656 C 203.693 233.124,198.611 228.320,197.005 227.508 C 196.122 227.061,194.950 226.385,194.400 226.006 C 193.850 225.626,191.600 224.708,189.400 223.964 L 185.400 222.612 146.425 222.493 C 119.063 222.409,107.294 222.244,106.925 221.938 C 106.279 221.402,106.201 215.919,106.823 214.758 C 107.239 213.979,107.789 213.969,144.723 214.019 L 182.200 214.071 186.314 213.025 C 195.120 210.786,203.385 204.246,206.819 196.800 C 207.276 195.810,207.992 194.357,208.410 193.572 C 211.714 187.367,211.904 169.947,208.726 164.600 C 208.464 164.160,207.739 162.810,207.114 161.600 C 204.759 157.039,202.591 154.618,196.400 149.639 C 195.630 149.019,194.190 148.121,193.200 147.643 C 192.210 147.165,190.950 146.524,190.400 146.218 C 189.850 145.912,187.600 145.192,185.400 144.618 L 181.400 143.575 154.693 143.630 C 134.086 143.673,127.850 143.573,127.393 143.194 C 126.562 142.504,126.543 136.184,127.371 135.720 C 127.891 135.429,139.605 135.424,176.000 135.701 " stroke="none" fill="#6494bc" fill-rule="evenodd"></path><path id="path4" d="M306.598 114.402 C 305.575 115.532,306.010 115.637,307.086 114.520 C 307.573 114.014,307.826 113.600,307.648 113.600 C 307.470 113.600,306.997 113.961,306.598 114.402 M315.900 114.399 C 316.811 115.420,316.613 319.085,315.700 320.169 C 315.001 320.999,315.001 320.999,315.900 320.238 L 316.800 319.476 316.800 217.187 C 316.800 120.237,316.763 114.870,316.100 114.368 C 315.504 113.918,315.475 113.922,315.900 114.399 M90.800 114.688 C 93.669 114.794,94.309 114.945,94.900 115.651 C 95.285 116.112,95.600 116.317,95.600 116.106 C 95.600 114.907,94.094 114.401,90.769 114.481 L 87.400 114.563 90.800 114.688 M127.100 115.100 C 136.835 115.160,152.765 115.160,162.500 115.100 C 172.235 115.040,164.270 114.991,144.800 114.991 C 125.330 114.991,117.365 115.040,127.100 115.100 M181.633 115.351 C 181.725 115.434,183.060 115.602,184.600 115.726 C 186.752 115.898,187.030 115.869,185.800 115.598 C 184.183 115.242,181.326 115.073,181.633 115.351 M296.597 207.200 C 296.597 257.910,296.643 278.655,296.700 253.300 C 296.757 227.945,296.757 186.455,296.700 161.100 C 296.643 135.745,296.597 156.490,296.597 207.200 M306.099 212.691 L 306.000 309.182 305.047 309.806 C 303.409 310.879,277.371 310.509,276.521 309.400 C 276.164 308.934,275.982 308.850,276.086 309.200 C 276.661 311.145,303.233 311.780,305.385 309.900 L 306.415 309.000 306.307 212.600 L 306.198 116.200 306.099 212.691 M95.797 210.800 C 95.797 262.610,95.843 283.805,95.900 257.900 C 95.957 231.995,95.957 189.605,95.900 163.700 C 95.843 137.795,95.797 158.990,95.797 210.800 M265.397 217.200 C 265.397 272.530,265.443 295.165,265.500 267.500 C 265.557 239.835,265.557 194.565,265.500 166.900 C 265.443 139.235,265.397 161.870,265.397 217.200 M85.397 218.000 C 85.397 272.010,85.443 294.105,85.500 267.100 C 85.557 240.095,85.557 195.905,85.500 168.900 C 85.443 141.895,85.397 163.990,85.397 218.000 M211.200 123.564 C 211.750 124.014,212.380 124.383,212.600 124.385 C 213.028 124.388,212.305 123.834,211.000 123.160 C 210.469 122.885,210.536 123.021,211.200 123.564 M279.700 123.887 C 280.305 123.978,281.295 123.978,281.900 123.887 C 282.505 123.795,282.010 123.720,280.800 123.720 C 279.590 123.720,279.095 123.795,279.700 123.887 M132.530 125.500 C 140.851 125.560,154.351 125.560,162.530 125.500 C 170.708 125.439,163.900 125.390,147.400 125.390 C 130.900 125.390,124.208 125.439,132.530 125.500 M179.500 125.882 C 179.995 125.978,180.805 125.978,181.300 125.882 C 181.795 125.787,181.390 125.709,180.400 125.709 C 179.410 125.709,179.005 125.787,179.500 125.882 M182.900 126.276 C 183.285 126.376,183.915 126.376,184.300 126.276 C 184.685 126.175,184.370 126.093,183.600 126.093 C 182.830 126.093,182.515 126.175,182.900 126.276 M218.801 128.537 C 219.351 129.162,220.160 129.859,220.600 130.086 C 221.442 130.520,221.418 130.493,219.201 128.597 L 217.803 127.400 218.801 128.537 M115.789 159.000 C 115.789 174.400,115.839 180.642,115.900 172.871 C 115.961 165.100,115.961 152.500,115.900 144.871 C 115.839 137.242,115.789 143.600,115.789 159.000 M126.400 135.200 C 125.709 135.891,125.610 136.477,125.670 139.500 L 125.740 143.000 125.970 139.316 C 126.161 136.263,126.337 135.528,127.000 135.029 C 127.440 134.697,127.665 134.420,127.500 134.413 C 127.335 134.406,126.840 134.760,126.400 135.200 M143.500 134.700 C 150.375 134.761,161.625 134.761,168.500 134.700 C 175.375 134.638,169.750 134.588,156.000 134.588 C 142.250 134.588,136.625 134.638,143.500 134.700 M182.900 134.687 C 183.505 134.778,184.495 134.778,185.100 134.687 C 185.705 134.595,185.210 134.520,184.000 134.520 C 182.790 134.520,182.295 134.595,182.900 134.687 M192.800 136.200 C 194.626 136.903,195.345 136.893,193.800 136.186 C 193.140 135.883,192.330 135.642,192.000 135.648 C 191.670 135.655,192.030 135.903,192.800 136.200 M200.200 139.222 C 201.682 140.230,203.600 141.273,203.600 141.070 C 203.600 140.860,199.609 138.399,199.273 138.403 C 199.123 138.404,199.540 138.773,200.200 139.222 M126.000 143.515 C 126.000 144.096,127.933 145.401,128.279 145.054 C 128.419 144.914,128.330 144.800,128.082 144.800 C 127.834 144.800,127.264 144.406,126.816 143.925 C 126.367 143.443,126.000 143.259,126.000 143.515 M207.983 144.900 C 208.964 145.945,209.819 146.800,209.883 146.800 C 210.184 146.800,209.866 146.441,208.100 144.783 L 206.200 143.000 207.983 144.900 M142.900 145.100 C 150.325 145.161,162.475 145.161,169.900 145.100 C 177.325 145.039,171.250 144.989,156.400 144.989 C 141.550 144.989,135.475 145.039,142.900 145.100 M193.200 148.511 C 193.200 148.587,193.785 149.078,194.500 149.601 C 195.304 150.190,195.584 150.287,195.233 149.855 C 194.700 149.199,193.200 148.207,193.200 148.511 M142.300 153.500 C 148.955 153.561,159.845 153.561,166.500 153.500 C 173.155 153.438,167.710 153.388,154.400 153.388 C 141.090 153.388,135.645 153.438,142.300 153.500 M184.800 155.200 C 185.570 155.622,186.380 155.966,186.600 155.966 C 186.820 155.966,186.370 155.622,185.600 155.200 C 184.830 154.778,184.020 154.434,183.800 154.434 C 183.580 154.434,184.030 154.778,184.800 155.200 M125.773 169.400 C 125.773 174.680,125.830 176.785,125.899 174.077 C 125.968 171.369,125.968 167.049,125.899 164.477 C 125.829 161.905,125.772 164.120,125.773 169.400 M137.300 163.996 C 136.585 164.432,136.000 164.971,136.000 165.194 C 136.000 165.417,136.355 165.245,136.790 164.810 C 137.546 164.054,138.189 163.815,140.400 163.466 C 141.138 163.350,141.033 163.295,140.000 163.256 C 139.223 163.227,138.022 163.556,137.300 163.996 M229.077 169.000 C 229.200 170.320,229.368 171.475,229.450 171.567 C 229.718 171.864,229.515 169.034,229.180 167.800 C 228.965 167.011,228.930 167.422,229.077 169.000 M239.293 168.400 C 239.293 169.170,239.375 169.485,239.476 169.100 C 239.576 168.715,239.576 168.085,239.476 167.700 C 239.375 167.315,239.293 167.630,239.293 168.400 M220.493 171.200 C 220.493 171.970,220.575 172.285,220.676 171.900 C 220.776 171.515,220.776 170.885,220.676 170.500 C 220.575 170.115,220.493 170.430,220.493 171.200 M239.924 177.200 C 240.025 181.050,240.174 184.275,240.254 184.367 C 240.516 184.665,240.329 174.660,240.031 172.400 C 239.871 171.190,239.823 173.350,239.924 177.200 M136.000 176.546 C 136.000 181.748,135.921 182.401,135.161 183.446 L 134.322 184.600 135.361 183.478 C 136.328 182.434,137.098 170.800,136.200 170.800 C 136.090 170.800,136.000 173.386,136.000 176.546 M229.709 173.600 C 229.709 174.590,229.787 174.995,229.882 174.500 C 229.978 174.005,229.978 173.195,229.882 172.700 C 229.787 172.205,229.709 172.610,229.709 173.600 M220.957 178.000 C 220.957 180.970,221.020 182.185,221.097 180.700 C 221.174 179.215,221.174 176.785,221.097 175.300 C 221.020 173.815,220.957 175.030,220.957 178.000 M189.497 178.200 C 189.588 180.400,189.724 182.380,189.800 182.600 C 190.080 183.417,189.909 176.162,189.626 175.200 C 189.464 174.650,189.406 176.000,189.497 178.200 M210.144 178.000 C 210.144 180.090,210.212 180.945,210.294 179.900 C 210.376 178.855,210.376 177.145,210.294 176.100 C 210.212 175.055,210.144 175.910,210.144 178.000 M200.101 176.600 C 200.105 177.480,200.187 177.793,200.283 177.295 C 200.379 176.798,200.375 176.078,200.275 175.695 C 200.175 175.313,200.096 175.720,200.101 176.600 M125.293 180.800 C 125.293 181.570,125.375 181.885,125.476 181.500 C 125.576 181.115,125.576 180.485,125.476 180.100 C 125.375 179.715,125.293 180.030,125.293 180.800 M200.101 183.000 C 200.105 183.880,200.187 184.193,200.283 183.695 C 200.379 183.198,200.375 182.478,200.275 182.095 C 200.175 181.713,200.096 182.120,200.101 183.000 M125.809 182.879 C 126.016 183.419,127.583 184.567,127.786 184.328 C 127.846 184.257,127.379 183.782,126.749 183.271 C 126.118 182.759,125.695 182.583,125.809 182.879 M229.709 185.600 C 229.709 186.590,229.787 186.995,229.882 186.500 C 229.978 186.005,229.978 185.195,229.882 184.700 C 229.787 184.205,229.709 184.610,229.709 185.600 M239.709 187.200 C 239.709 188.190,239.787 188.595,239.882 188.100 C 239.978 187.605,239.978 186.795,239.882 186.300 C 239.787 185.805,239.709 186.210,239.709 187.200 M208.315 190.610 C 208.192 191.045,207.969 191.760,207.820 192.200 C 207.671 192.640,207.842 192.494,208.200 191.876 C 208.558 191.258,208.781 190.542,208.695 190.286 C 208.610 190.030,208.439 190.176,208.315 190.610 M115.646 191.438 C 115.621 191.899,116.005 192.619,116.500 193.038 C 117.393 193.794,117.395 193.793,116.741 193.000 C 116.379 192.560,115.995 191.840,115.888 191.400 C 115.700 190.631,115.691 190.632,115.646 191.438 M203.965 199.700 C 203.711 200.195,203.029 201.139,202.451 201.799 L 201.400 202.997 202.538 201.999 C 203.590 201.075,205.074 198.800,204.624 198.800 C 204.516 198.800,204.220 199.205,203.965 199.700 M106.162 203.500 L 106.924 204.400 142.562 204.302 L 178.200 204.204 142.629 204.100 C 109.467 204.003,107.002 203.948,106.229 203.298 C 105.401 202.601,105.401 202.601,106.162 203.500 M193.600 209.200 C 192.830 209.622,192.344 209.974,192.520 209.983 C 192.944 210.005,195.200 208.832,195.200 208.590 C 195.200 208.328,195.177 208.337,193.600 209.200 M221.123 212.300 C 220.418 213.121,219.890 214.000,220.101 214.000 C 220.183 214.000,220.649 213.460,221.137 212.800 C 222.101 211.496,222.092 211.172,221.123 212.300 M206.575 213.300 L 205.400 214.600 206.700 213.425 C 207.415 212.779,208.000 212.194,208.000 212.125 C 208.000 211.816,207.670 212.088,206.575 213.300 M182.900 212.676 C 183.285 212.776,183.915 212.776,184.300 212.676 C 184.685 212.575,184.370 212.493,183.600 212.493 C 182.830 212.493,182.515 212.575,182.900 212.676 M106.480 213.280 C 106.216 213.544,106.000 213.938,106.000 214.156 C 106.000 214.375,106.225 214.248,106.500 213.876 C 106.962 213.250,109.780 213.192,144.000 213.098 L 181.000 212.996 143.980 212.898 C 115.610 212.823,106.848 212.912,106.480 213.280 M231.700 214.416 C 230.437 215.975,230.571 216.333,231.850 214.814 C 232.427 214.128,232.832 213.508,232.750 213.436 C 232.667 213.364,232.195 213.805,231.700 214.416 M218.575 215.700 L 217.400 217.000 218.700 215.825 C 219.415 215.179,220.000 214.594,220.000 214.525 C 220.000 214.216,219.670 214.488,218.575 215.700 M200.832 218.438 C 200.814 218.789,201.205 219.419,201.700 219.838 C 202.592 220.594,202.594 220.593,201.952 219.800 C 201.596 219.360,201.205 218.730,201.084 218.400 C 200.897 217.891,200.858 217.896,200.832 218.438 M219.000 221.600 C 220.083 222.700,221.060 223.600,221.170 223.600 C 221.280 223.600,220.483 222.700,219.400 221.600 C 218.317 220.500,217.340 219.600,217.230 219.600 C 217.120 219.600,217.917 220.500,219.000 221.600 M106.349 222.900 C 106.866 223.559,109.109 223.594,144.749 223.502 L 182.600 223.404 144.839 223.300 C 115.451 223.219,106.935 223.085,106.439 222.698 C 105.873 222.257,105.863 222.280,106.349 222.900 M209.800 226.400 C 210.883 227.500,211.860 228.400,211.970 228.400 C 212.080 228.400,211.283 227.500,210.200 226.400 C 209.117 225.300,208.140 224.400,208.030 224.400 C 207.920 224.400,208.717 225.300,209.800 226.400 M127.130 233.100 C 136.882 233.160,152.722 233.160,162.330 233.100 C 171.939 233.040,163.960 232.991,144.600 232.991 C 125.240 232.991,117.379 233.040,127.130 233.100 M184.796 234.384 C 186.003 234.801,187.046 235.087,187.112 235.021 C 187.319 234.814,184.022 233.599,183.292 233.613 C 182.911 233.620,183.588 233.967,184.796 234.384 M228.461 234.800 C 228.461 235.130,228.703 236.030,229.000 236.800 C 229.297 237.570,229.539 237.930,229.539 237.600 C 229.539 237.270,229.297 236.370,229.000 235.600 C 228.703 234.830,228.461 234.470,228.461 234.800 M217.634 237.800 C 217.634 238.020,217.978 238.830,218.400 239.600 C 218.822 240.370,219.166 240.820,219.166 240.600 C 219.166 240.380,218.822 239.570,218.400 238.800 C 217.978 238.030,217.634 237.580,217.634 237.800 M194.200 240.000 C 195.283 241.100,196.260 242.000,196.370 242.000 C 196.480 242.000,195.683 241.100,194.600 240.000 C 193.517 238.900,192.540 238.000,192.430 238.000 C 192.320 238.000,193.117 238.900,194.200 240.000 M239.256 238.400 C 239.256 238.730,239.411 239.360,239.600 239.800 C 239.817 240.304,239.944 240.378,239.944 240.000 C 239.944 239.670,239.789 239.040,239.600 238.600 C 239.383 238.096,239.256 238.022,239.256 238.400 M134.700 243.900 C 141.575 243.961,152.825 243.961,159.700 243.900 C 166.575 243.838,160.950 243.788,147.200 243.788 C 133.450 243.788,127.825 243.838,134.700 243.900 M177.505 243.883 C 178.002 243.979,178.722 243.975,179.105 243.875 C 179.487 243.775,179.080 243.696,178.200 243.701 C 177.320 243.705,177.007 243.787,177.505 243.883 M230.509 245.200 C 230.509 246.190,230.587 246.595,230.682 246.100 C 230.778 245.605,230.778 244.795,230.682 244.300 C 230.587 243.805,230.509 244.210,230.509 245.200 M230.962 255.800 C 230.962 259.320,231.024 260.706,231.098 258.881 C 231.172 257.056,231.172 254.176,231.097 252.481 C 231.022 250.786,230.961 252.280,230.962 255.800 M241.331 252.600 C 241.333 254.140,241.405 254.721,241.492 253.891 C 241.579 253.061,241.577 251.801,241.489 251.091 C 241.400 250.381,241.329 251.060,241.331 252.600 M115.784 267.600 C 115.784 277.170,115.836 281.085,115.900 276.300 C 115.963 271.515,115.963 263.685,115.900 258.900 C 115.836 254.115,115.784 258.030,115.784 267.600 M221.714 253.400 C 221.717 254.500,221.795 254.903,221.887 254.295 C 221.979 253.686,221.977 252.786,221.882 252.295 C 221.787 251.803,221.711 252.300,221.714 253.400 M128.500 252.276 C 128.885 252.376,129.515 252.376,129.900 252.276 C 130.285 252.175,129.970 252.093,129.200 252.093 C 128.430 252.093,128.115 252.175,128.500 252.276 M211.314 254.600 C 211.317 255.700,211.395 256.103,211.487 255.495 C 211.579 254.886,211.577 253.986,211.482 253.495 C 211.387 253.003,211.311 253.500,211.314 254.600 M190.546 257.800 C 190.547 260.000,190.614 260.849,190.695 259.687 C 190.776 258.524,190.776 256.724,190.693 255.687 C 190.611 254.649,190.545 255.600,190.546 257.800 M136.159 260.400 C 136.159 263.590,136.221 264.895,136.297 263.300 C 136.373 261.705,136.373 259.095,136.297 257.500 C 136.221 255.905,136.159 257.210,136.159 260.400 M125.772 267.600 C 125.772 272.770,125.829 274.885,125.899 272.300 C 125.968 269.715,125.968 265.485,125.899 262.900 C 125.829 260.315,125.772 262.430,125.772 267.600 M241.334 261.200 C 241.334 262.850,241.405 263.525,241.491 262.700 C 241.578 261.875,241.578 260.525,241.491 259.700 C 241.405 258.875,241.334 259.550,241.334 261.200 M200.901 261.800 C 200.905 262.680,200.987 262.993,201.083 262.495 C 201.179 261.998,201.175 261.278,201.075 260.895 C 200.975 260.513,200.896 260.920,200.901 261.800 M211.301 262.600 C 211.305 263.480,211.387 263.793,211.483 263.295 C 211.579 262.798,211.575 262.078,211.475 261.695 C 211.375 261.313,211.296 261.720,211.301 262.600 M221.709 263.600 C 221.709 264.590,221.787 264.995,221.882 264.500 C 221.978 264.005,221.978 263.195,221.882 262.700 C 221.787 262.205,221.709 262.610,221.709 263.600 M188.489 265.828 C 187.792 267.041,187.383 267.934,187.579 267.813 C 188.013 267.545,190.064 263.930,189.884 263.750 C 189.813 263.680,189.186 264.615,188.489 265.828 M230.501 265.800 C 230.505 266.680,230.587 266.993,230.683 266.495 C 230.779 265.998,230.775 265.278,230.675 264.895 C 230.575 264.513,230.496 264.920,230.501 265.800 M210.467 266.667 C 210.196 267.679,210.045 268.579,210.132 268.665 C 210.219 268.752,210.519 268.003,210.800 267.000 C 211.081 265.997,211.231 265.098,211.135 265.001 C 211.038 264.905,210.737 265.654,210.467 266.667 M240.893 266.800 C 240.893 267.570,240.975 267.885,241.076 267.500 C 241.176 267.115,241.176 266.485,241.076 266.100 C 240.975 265.715,240.893 266.030,240.893 266.800 M185.294 269.212 C 184.575 269.865,184.137 270.400,184.319 270.400 C 184.501 270.400,185.168 269.860,185.800 269.200 C 187.270 267.665,186.986 267.672,185.294 269.212 M136.014 269.918 C 135.996 270.590,137.810 272.404,138.482 272.386 C 138.767 272.378,138.570 272.133,138.044 271.842 C 137.518 271.550,136.850 270.882,136.558 270.356 C 136.267 269.830,136.022 269.633,136.014 269.918 M149.728 272.300 C 154.968 272.363,163.428 272.363,168.528 272.300 C 173.627 272.236,169.340 272.185,159.000 272.185 C 148.660 272.185,144.487 272.237,149.728 272.300 M196.723 272.700 C 196.018 273.521,195.490 274.400,195.701 274.400 C 195.783 274.400,196.249 273.860,196.737 273.200 C 197.701 271.896,197.692 271.572,196.723 272.700 M125.293 278.800 C 125.293 279.570,125.375 279.885,125.476 279.500 C 125.576 279.115,125.576 278.485,125.476 278.100 C 125.375 277.715,125.293 278.030,125.293 278.800 M190.900 278.396 C 190.185 278.832,189.600 279.275,189.600 279.381 C 189.600 279.486,190.230 279.201,191.000 278.747 C 191.770 278.293,192.400 277.849,192.400 277.760 C 192.400 277.505,192.274 277.558,190.900 278.396 M201.178 282.300 L 199.800 283.800 201.300 282.422 C 202.696 281.138,202.984 280.800,202.678 280.800 C 202.612 280.800,201.937 281.475,201.178 282.300 M181.000 282.000 C 179.922 282.274,179.902 282.306,180.800 282.313 C 181.350 282.317,182.250 282.176,182.800 282.000 C 184.144 281.569,182.692 281.569,181.000 282.000 M142.729 282.700 C 149.620 282.761,160.780 282.761,167.529 282.700 C 174.278 282.638,168.640 282.588,155.000 282.588 C 141.360 282.588,135.838 282.638,142.729 282.700 M197.000 285.450 C 196.281 286.062,196.134 286.305,196.633 286.057 C 197.366 285.693,198.741 284.376,198.349 284.414 C 198.267 284.422,197.660 284.888,197.000 285.450 M115.601 288.646 C 115.601 288.891,115.973 289.566,116.429 290.146 L 117.258 291.200 149.529 291.102 L 181.800 291.005 149.493 290.900 L 117.185 290.795 116.394 289.498 C 115.959 288.784,115.602 288.401,115.601 288.646 M187.400 289.600 C 186.896 289.817,186.822 289.944,187.200 289.944 C 187.530 289.944,188.160 289.789,188.600 289.600 C 189.104 289.383,189.178 289.256,188.800 289.256 C 188.470 289.256,187.840 289.411,187.400 289.600 M224.589 302.500 L 221.800 305.400 224.700 302.611 C 227.394 300.020,227.783 299.600,227.489 299.600 C 227.428 299.600,226.123 300.905,224.589 302.500 M182.505 301.487 C 183.114 301.579,184.014 301.577,184.505 301.482 C 184.997 301.387,184.500 301.311,183.400 301.314 C 182.300 301.317,181.897 301.395,182.505 301.487 M289.312 301.495 C 290.364 301.577,291.984 301.576,292.912 301.492 C 293.840 301.408,292.980 301.341,291.000 301.342 C 289.020 301.343,288.260 301.412,289.312 301.495 M108.307 301.890 C 109.026 301.979,110.106 301.977,110.707 301.886 C 111.308 301.795,110.720 301.722,109.400 301.724 C 108.080 301.726,107.588 301.801,108.307 301.890 M198.400 306.420 C 197.410 306.825,196.870 307.162,197.200 307.168 C 197.530 307.174,198.520 306.838,199.400 306.422 C 201.443 305.455,200.761 305.453,198.400 306.420 M217.687 308.300 C 216.730 309.235,216.714 309.281,217.581 308.606 C 219.288 307.276,219.369 307.200,219.086 307.200 C 218.936 307.200,218.306 307.695,217.687 308.300 M189.200 308.800 C 188.408 309.054,188.367 309.120,189.000 309.120 C 189.440 309.120,190.250 308.976,190.800 308.800 C 191.592 308.546,191.633 308.480,191.000 308.480 C 190.560 308.480,189.750 308.624,189.200 308.800 M183.105 309.883 C 183.602 309.979,184.322 309.975,184.705 309.875 C 185.087 309.775,184.680 309.696,183.800 309.701 C 182.920 309.705,182.607 309.787,183.105 309.883 M176.311 310.293 C 177.251 310.378,178.691 310.377,179.511 310.291 C 180.330 310.205,179.560 310.136,177.800 310.137 C 176.040 310.139,175.370 310.209,176.311 310.293 M99.300 310.676 C 99.685 310.776,100.315 310.776,100.700 310.676 C 101.085 310.575,100.770 310.493,100.000 310.493 C 99.230 310.493,98.915 310.575,99.300 310.676 M207.600 314.000 C 206.830 314.422,206.344 314.774,206.520 314.783 C 206.944 314.805,209.200 313.632,209.200 313.390 C 209.200 313.128,209.177 313.137,207.600 314.000 M190.400 319.200 C 189.608 319.454,189.567 319.520,190.200 319.520 C 190.640 319.520,191.450 319.376,192.000 319.200 C 192.792 318.946,192.833 318.880,192.200 318.880 C 191.760 318.880,190.950 319.024,190.400 319.200 M184.100 320.276 C 184.485 320.376,185.115 320.376,185.500 320.276 C 185.885 320.175,185.570 320.093,184.800 320.093 C 184.030 320.093,183.715 320.175,184.100 320.276 M177.891 320.689 C 178.601 320.777,179.861 320.779,180.691 320.692 C 181.521 320.605,180.940 320.533,179.400 320.531 C 177.860 320.529,177.181 320.600,177.891 320.689 M278.729 321.100 C 285.179 321.162,295.619 321.162,301.929 321.100 C 308.238 321.038,302.960 320.987,290.200 320.987 C 277.440 320.987,272.278 321.038,278.729 321.100 " stroke="none" fill="#5c94bc" fill-rule="evenodd"></path></g></svg>